<?xml version="1.0" encoding="UTF-8" standalone="no"?>
<svg
   xmlns:dc="http://purl.org/dc/elements/1.1/"
   xmlns:cc="http://creativecommons.org/ns#"
   xmlns:rdf="http://www.w3.org/1999/02/22-rdf-syntax-ns#"
   xmlns:svg="http://www.w3.org/2000/svg"
   xmlns="http://www.w3.org/2000/svg"
   viewBox="0 0 370.09332 97.360001"
   height="97.360001"
   width="370.09332"
   xml:space="preserve"
   id="svg2"
   version="1.1"><metadata
     id="metadata8"><rdf:RDF><cc:Work
         rdf:about=""><dc:format>image/svg+xml</dc:format><dc:type
           rdf:resource="http://purl.org/dc/dcmitype/StillImage" /></cc:Work></rdf:RDF></metadata><defs
     id="defs6"><clipPath
       id="clipPath20"
       clipPathUnits="userSpaceOnUse"><path
         id="path18"
         d="M 0,0 H 2775.73 V 730 H 0 Z" /></clipPath></defs><g
     transform="matrix(1.3333333,0,0,-1.3333333,0,97.36)"
     id="g10"><g
       transform="scale(0.1)"
       id="g12"><g
         id="g14"><g
           clip-path="url(#clipPath20)"
           id="g16"><path
             id="path22"
             style="fill:#e67213;fill-opacity:1;fill-rule:nonzero;stroke:none"
             d="m 89.875,474.863 c 0,0 -47.7461,41.973 13.977,105.34 61.73,63.383 337.16,150.606 567.601,85.871 -42.781,25.512 -63.84,32.809 -65.828,34.016 C 538.137,741.242 208.375,760.449 29.5156,621.086 -29.7461,566.215 18.5508,512.441 18.5508,512.441 L 89.875,474.863" /><path
             id="path24"
             style="fill:#e67213;fill-opacity:1;fill-rule:nonzero;stroke:none"
             d="m 579.285,402.266 c 0,0 129.227,105.8 41.695,245.152 148.106,-73.488 117.426,-274.801 31.829,-286.863 -1.094,-66.953 -5.489,-192.684 -6.598,-226.7 -1.078,-34.0112 -8.75,-53.7573 -68.023,-62.5386 -59.262,-8.7773 -380.79,-47.1953 -406.032,-50.4883 -25.226,-3.2773 -37.301,18.6524 -39.492,44.9805 19.746,2.1992 370.91,47.1994 389.559,49.3864 18.66,2.196 51.582,6.602 51.582,65.86 0,59.25 5.48,221.211 5.48,221.211" /><path
             id="path26"
             style="fill:#e67213;fill-opacity:1;fill-rule:nonzero;stroke:none"
             d="m 302.207,299.559 7.398,4.933 c 0,0 87.243,-23.855 166.262,69.141 60.891,-32.11 73.242,-40.332 73.242,-40.332 0,0 -102.054,-134.153 -246.902,-33.742" /><path
             id="path28"
             style="fill:#e67213;fill-opacity:1;fill-rule:nonzero;stroke:none"
             d="m 203.434,353.895 c 0,0 116.07,144.828 251.031,74.882 56.789,-32.918 59.25,-35.386 59.25,-35.386 0,0 -103.68,65.015 -234.555,-80.657 -54.324,29.629 -75.726,41.161 -75.726,41.161" /><path
             id="path30"
             style="fill:#e67213;fill-opacity:1;fill-rule:nonzero;stroke:none"
             d="m 105.492,52.668 c 0,17.2812 4.121,154.723 4.121,154.723 l 135.801,82.297 -90.531,31.281 -120.1603,-72.434 c 0,0 -4.9375,-100.398 -4.9375,-149.785 0,-49.3945 41.1523,-63.3906 104.5238,-98.75 -19.754,11.4922 -28.817,35.3594 -28.817,52.668" /><path
             id="path32"
             style="fill:#e67213;fill-opacity:1;fill-rule:nonzero;stroke:none"
             d="M 49.5352,406.555 203.434,353.895 279.16,312.734 125.254,364.578" /><path
             id="path34"
             style="fill:#e67213;fill-opacity:1;fill-rule:nonzero;stroke:none"
             d="m 895.902,405.645 c -17.695,0 -31.984,-15.989 -31.992,-35.86 -0.004,-19.375 14.289,-35.129 31.973,-35.129 17.687,-0.008 31.984,15.254 31.992,35.117 0,20.356 -14.297,35.864 -31.973,35.872 z m 4.571,-100.547 c -15.02,0 -28.34,5.82 -38.028,15.996 l -0.004,-13.321 -30.765,0.008 0.043,180.246 32.222,-0.011 -0.015,-67.352 c 9.449,9.207 22.289,14.531 36.586,14.531 32.707,-0.011 59.355,-28.125 59.336,-65.183 0,-36.828 -26.66,-64.922 -59.375,-64.914" /><path
             id="path36"
             style="fill:#e67213;fill-opacity:1;fill-rule:nonzero;stroke:none"
             d="m 1050.71,403.906 c -12.84,1.453 -23.51,0.012 -30.77,-7.746 -6.79,-7.019 -8,-17.195 -8,-27.129 l -0.02,-61.297 -31.982,0.008 0.027,124.77 30.525,-0.012 v -12.355 c 10.18,12.597 25.2,17.199 40.22,14.777 v -31.016" /><path
             id="path38"
             style="fill:#e67213;fill-opacity:1;fill-rule:nonzero;stroke:none"
             d="m 1154.66,383.77 c -3.87,14.539 -15.98,23.75 -31.24,23.75 -14.54,0.007 -26.17,-9.2 -30.78,-23.731 z m -62.51,-26.141 c 4.12,-15.266 16.23,-24.719 31.25,-24.719 10.66,-0.012 21.08,4.59 26.41,14.531 l 34.16,-0.019 c -7.28,-25.43 -29.33,-42.625 -60.33,-42.617 -35.14,0 -63.96,29.09 -63.95,65.183 0.01,36.098 28.85,65.649 63.98,65.637 36.82,-0.012 67.34,-28.605 62.72,-78.027 l -94.24,0.031" /><path
             id="path40"
             style="fill:#e67213;fill-opacity:1;fill-rule:nonzero;stroke:none"
             d="m 1289.6,367.754 c -6.78,-4.356 -17.2,-6.543 -30.28,-7.988 -15.75,-1.7 -25.45,-5.078 -25.45,-14.297 0,-7.024 8.24,-11.867 21.08,-11.867 19.14,-0.008 34.65,6.535 34.65,22.519 z m 0.95,-48.457 c -8.23,-8.723 -20.84,-14.043 -38.28,-14.031 -26.41,0 -50.62,13.328 -50.62,40.457 0.01,28.105 23.51,35.371 51.13,37.785 20.84,1.93 35.61,4.351 35.61,14.527 0,6.543 -8.46,11.875 -22.76,11.875 -11.39,0 -24.47,-5.074 -27.38,-15.738 l -31.98,0.008 c 3.15,23.742 25.93,41.425 58.64,41.418 50.62,-0.012 54.49,-32.727 54.49,-42.66 l -0.01,-64.93 c -0.01,-6.055 1.93,-15.496 3.62,-20.34 h -29.31 c -1.45,3.152 -2.43,7.027 -3.15,11.629" /><path
             id="path42"
             style="fill:#e67213;fill-opacity:1;fill-rule:nonzero;stroke:none"
             d="m 1405.44,405.516 c -17.69,0 -31.99,-15.496 -31.99,-35.848 -0.01,-19.863 14.29,-35.125 31.97,-35.137 17.69,0 31.99,15.742 31.99,35.125 0,19.864 -14.28,35.86 -31.97,35.86 z m 63.94,-97.887 -30.54,0.008 0.01,13.32 c -9.94,-10.176 -23.02,-15.984 -38.28,-15.977 -32.46,0.008 -59.35,28.118 -59.33,64.942 0,37.07 26.9,65.168 59.36,65.156 14.54,-0.012 27.14,-5.344 36.83,-14.551 l 0.01,67.356 31.98,-0.012 -0.04,-180.242" /><path
             id="path44"
             style="fill:#e67213;fill-opacity:1;fill-rule:nonzero;stroke:none"
             d="m 1520.51,423.418 -0.02,-115.813 -9.21,0.012 0.03,115.801 -16.95,0.012 v 8.953 h 16.95 v 8.719 c 0.01,27.621 15.77,45.304 42.66,42.871 v -8.231 c -23.51,1.453 -33.44,-13.086 -33.45,-35.371 l -0.01,-7.988 33.44,-0.012 v -8.965 l -33.44,0.012" /><path
             id="path46"
             style="fill:#e67213;fill-opacity:1;fill-rule:nonzero;stroke:none"
             d="m 1673.4,369.598 c 0,31.73 -23.73,57.422 -53.29,57.433 -29.3,0 -53.3,-25.676 -53.31,-57.414 0,-31.004 23.98,-56.453 53.28,-56.453 29.56,-0.012 53.31,25.422 53.32,56.434 z m 9.2,0 c 0,-35.86 -28.11,-64.918 -62.52,-64.918 -34.16,0.008 -62.25,29.09 -62.24,64.937 0.01,36.352 28.12,65.899 62.28,65.891 34.4,-0.012 62.5,-29.57 62.48,-65.91" /><path
             id="path48"
             style="fill:#e67213;fill-opacity:1;fill-rule:nonzero;stroke:none"
             d="m 1766.44,426.746 c -16.47,1.469 -29.07,-3.133 -36.83,-10.644 -8.96,-7.997 -13.8,-20.106 -13.81,-33.192 l -0.02,-75.344 h -9.21 l 0.04,124.778 9.2,-0.008 v -20.844 c 2.17,4.133 4.84,8 8.24,11.145 10.9,9.687 25.43,14.297 42.39,12.343 v -8.234" /><path
             id="path50"
             style="fill:#2a1c1e;fill-opacity:1;fill-rule:nonzero;stroke:none"
             d="m 1808.81,350.664 c 0,-21.316 9.93,-35.859 33.68,-34.883 v -8.242 c -26.9,-2.422 -42.64,15.273 -42.63,43.137 l 0.01,72.672 h -16.95 v 8.964 h 16.95 l 0.01,26.653 h 8.96 l -0.01,-26.653 33.68,-0.007 v -8.965 l -33.68,0.008 -0.02,-72.684" /><path
             id="path52"
             style="fill:#2a1c1e;fill-opacity:1;fill-rule:nonzero;stroke:none"
             d="m 1970.63,307.5 -8.96,0.012 0.02,75.347 c 0,27.364 -14.77,43.852 -42.14,43.852 -25.2,0.008 -44.83,-18.645 -44.83,-43.84 l -0.03,-75.344 h -8.96 l 0.05,180.246 h 8.96 l -0.02,-76.55 c 8.97,14.773 25.21,24.215 45.07,24.215 31.99,-0.008 50.87,-20.126 50.86,-52.586 l -0.02,-75.352" /><path
             id="path54"
             style="fill:#2a1c1e;fill-opacity:1;fill-rule:nonzero;stroke:none"
             d="m 2108.5,378.934 c -4.34,26.894 -26.39,47.257 -52.56,47.257 -26.4,0.008 -48.21,-20.332 -52.33,-47.226 z M 2002.63,370 c 0.24,-32.461 24.47,-56.453 54.74,-56.465 29.32,0 42.65,16.231 48.71,32.703 l 9.44,-0.008 c -8.72,-26.882 -28.83,-41.66 -58.15,-41.652 -35.62,0.012 -63.71,28.606 -63.7,64.942 0.01,36.339 27.88,65.89 62.27,65.878 37.31,0 62.75,-33.925 62.25,-65.425 L 2002.63,370" /><path
             id="path56"
             style="fill:#2a1c1e;fill-opacity:1;fill-rule:nonzero;stroke:none"
             d="m 2277.35,307.43 -32.95,0.011 -22.51,82.618 -22.55,-82.61 -33.2,0.012 -38.73,124.773 33.92,-0.007 21.78,-87.215 22.79,87.207 31.99,-0.012 22.75,-87.219 21.83,87.207 33.91,-0.007 -39.03,-124.758" /><path
             id="path58"
             style="fill:#2a1c1e;fill-opacity:1;fill-rule:nonzero;stroke:none"
             d="m 2415.21,369.414 c 0,21.563 -13.8,36.594 -30.76,36.602 -16.96,0 -30.77,-15.02 -30.77,-36.582 -0.01,-21.075 13.79,-35.618 30.75,-35.625 16.96,0 30.77,14.531 30.78,35.605 z m 32.23,0.242 c -0.02,-37.312 -28.37,-65.164 -63.02,-65.152 -34.64,0.008 -62.73,27.879 -62.73,65.184 0.01,37.304 28.12,65.644 62.77,65.632 34.65,-0.008 62.98,-28.355 62.98,-65.664" /><path
             id="path60"
             style="fill:#2a1c1e;fill-opacity:1;fill-rule:nonzero;stroke:none"
             d="m 2578.26,373.984 -31.98,0.008 v 6.289 c 0,7.278 -2.17,24.719 -23.26,24.731 -14.28,0 -24.22,-10.657 -24.23,-24.707 l -0.02,-72.934 -31.98,0.012 0.03,124.773 30.54,-0.008 v -12.121 c 7.99,9.453 18.9,15.266 32.22,15.266 29.31,-0.012 48.69,-22.063 48.68,-55.012 v -6.297" /><path
             id="path62"
             style="fill:#2a1c1e;fill-opacity:1;fill-rule:nonzero;stroke:none"
             d="m 2625.23,307.352 h -31.97 l 0.04,180.246 h 31.98 l -0.05,-180.246" /><path
             id="path64"
             style="fill:#2a1c1e;fill-opacity:1;fill-rule:nonzero;stroke:none"
             d="m 2711.75,405.203 c -17.68,0 -31.99,-15.496 -31.99,-35.848 -0.01,-19.863 14.29,-35.128 31.96,-35.136 17.7,0 32,15.742 32.01,35.117 0,19.875 -14.3,35.867 -31.98,35.867 z m 63.94,-97.891 h -30.54 v 13.333 c -9.92,-10.176 -23.01,-15.989 -38.27,-15.989 -32.46,0.024 -59.35,28.117 -59.34,64.942 0.01,37.074 26.91,65.175 59.37,65.16 14.54,0 27.13,-5.332 36.83,-14.543 l 0.01,67.351 31.98,-0.007 -0.04,-180.247" /><path
             id="path66"
             style="fill:#2a1c1e;fill-opacity:1;fill-rule:nonzero;stroke:none"
             d="m 1412.06,138.176 -13.83,-0.051 -0.22,72.676 13.82,0.039 0.23,-72.664" /><path
             id="path68"
             style="fill:#2a1c1e;fill-opacity:1;fill-rule:nonzero;stroke:none"
             d="m 1527.66,138.523 -16.65,-0.046 -29.79,51.628 0.15,-51.726 -13.81,-0.039 -0.23,72.668 16.66,0.054 29.68,-51.636 -0.17,51.726 13.95,0.047 0.21,-72.676" /><path
             id="path70"
             style="fill:#2a1c1e;fill-opacity:1;fill-rule:nonzero;stroke:none"
             d="m 1637.55,189.543 -13.81,-0.051 c -0.02,6.301 -5.28,10.985 -14.07,10.957 -7.32,-0.019 -14.13,-2.871 -14.11,-8.418 0.01,-5.027 4.94,-6.797 16.05,-9.062 17.29,-3.399 28.19,-7.664 28.24,-22.531 0.04,-14.032 -11.66,-22.872 -29.98,-22.918 -14.25,-0.047 -29.77,7.761 -29.83,25.253 l 13.83,0.039 c 0.02,-8.585 8.63,-12.644 15.96,-12.628 7.95,0.031 16.22,2.882 16.19,9.789 0,4.605 -3.79,7.429 -17.2,10 -13.4,2.578 -27.04,6.511 -27.08,22.117 -0.05,12.461 10.92,21.191 27.89,21.238 19.16,0.063 27.89,-12.266 27.92,-23.785" /><path
             id="path72"
             style="fill:#2a1c1e;fill-opacity:1;fill-rule:nonzero;stroke:none"
             d="m 1717.52,198.895 0.19,-59.786 -13.82,-0.047 -0.18,59.793 -19.49,-0.054 -0.03,12.871 52.78,0.164 0.04,-12.883 -19.49,-0.058" /><path
             id="path74"
             style="fill:#2a1c1e;fill-opacity:1;fill-rule:nonzero;stroke:none"
             d="m 1801.59,139.355 -13.83,-0.039 -0.22,72.664 13.82,0.051 0.23,-72.676" /><path
             id="path76"
             style="fill:#2a1c1e;fill-opacity:1;fill-rule:nonzero;stroke:none"
             d="m 1885.18,199.402 0.18,-59.785 -13.83,-0.047 -0.18,59.793 -19.47,-0.058 -0.04,12.883 52.77,0.164 0.03,-12.887 -19.46,-0.063" /><path
             id="path78"
             style="fill:#2a1c1e;fill-opacity:1;fill-rule:nonzero;stroke:none"
             d="m 2010.4,168.801 c 0.05,-18.535 -9.64,-30.09 -27.97,-30.149 -18.32,-0.05 -27.99,11.438 -28.05,29.981 l -0.14,43.855 13.83,0.051 0.14,-44.285 c 0.02,-10.781 4.76,-16.223 14.18,-16.195 9.43,0.031 14.12,5.492 14.09,16.281 l -0.14,44.289 13.92,0.047 0.14,-43.875" /><path
             id="path80"
             style="fill:#2a1c1e;fill-opacity:1;fill-rule:nonzero;stroke:none"
             d="m 2093.13,200.051 0.2,-59.809 -13.83,-0.027 -0.19,59.785 -19.48,-0.059 -0.03,12.879 52.76,0.168 0.06,-12.883 -19.49,-0.054" /><path
             id="path82"
             style="fill:#2a1c1e;fill-opacity:1;fill-rule:nonzero;stroke:none"
             d="m 2216.87,140.625 -53.82,-0.164 -0.21,72.676 53.08,0.164 0.04,-12.879 -39.27,-0.129 0.05,-15.496 33.52,0.105 0.02,-12.882 -33.51,-0.094 0.05,-18.535 40.01,0.117 0.04,-12.883" /></g></g></g></g></svg>