<svg id="Layer_1" data-name="Layer 1" xmlns="http://www.w3.org/2000/svg" viewBox="0 0 285.91 198.94"><defs><style>.cls-1{fill:#e5801d;}.cls-2{fill:#2e1e24;}</style></defs><title>institute-logo</title><path class="cls-1" d="M127.88,95.56s-7.93-7,2.32-17.51,56-25,94.34-14.27a81.85,81.85,0,0,0-10.94-5.65c-11.22-6.84-66-10-95.75,13.13C108,80.38,116,89.32,116,89.32Z" transform="translate(-30.1 -53.12)"/><path class="cls-1" d="M209.22,107.63S230.69,90,216.15,66.89c24.62,12.21,19.52,45.67,5.29,47.68-0.18,11.13-.91,32-1.1,37.68s-1.45,8.93-11.31,10.39-63.29,7.84-67.48,8.39-6.2-3.1-6.56-7.48c3.28-.37,61.64-7.84,64.74-8.21s8.57-1.1,8.57-10.95S209.22,107.63,209.22,107.63Z" transform="translate(-30.1 -53.12)"/><path class="cls-1" d="M163.17,124.7l1.23-.82s14.5,4,27.63-11.49c10.12,5.34,12.17,6.7,12.17,6.7S187.24,141.39,163.17,124.7Z" transform="translate(-30.1 -53.12)"/><path class="cls-1" d="M146.75,115.67S166,91.6,188.47,103.22c9.44,5.47,9.85,5.88,9.85,5.88s-17.23-10.81-39,13.41C150.31,117.59,146.75,115.67,146.75,115.67Z" transform="translate(-30.1 -53.12)"/><path class="cls-1" d="M130.47,165.73c0-2.87.68-25.72,0.68-25.72l22.57-13.68-15-5.2-20,12s-0.82,16.68-.82,24.89,6.84,10.54,17.37,16.41A10.53,10.53,0,0,1,130.47,165.73Z" transform="translate(-30.1 -53.12)"/><polyline class="cls-1" points="91.07 53.79 116.64 62.55 129.23 69.39 103.65 60.77"/><path class="cls-1" d="M40.22,227.42a7.6,7.6,0,0,1-5.59-2.35v2H30.1V200.52h4.74v9.91a7.63,7.63,0,0,1,5.38-2.14c4.81,0,8.73,4.14,8.73,9.59S45,227.42,40.22,227.42Zm-0.67-14.79a5,5,0,0,0-4.7,5.27,5,5,0,0,0,4.7,5.17,4.91,4.91,0,0,0,4.7-5.16C44.25,214.92,42.15,212.63,39.55,212.63Z" transform="translate(-30.1 -53.12)"/><path class="cls-1" d="M62.32,212.89c-1.89-.21-3.46,0-4.52,1.14a5.55,5.55,0,0,0-1.18,4v9h-4.7V208.68H56.4v1.82a6.14,6.14,0,0,1,5.92-2.17v4.56Z" transform="translate(-30.1 -53.12)"/><path class="cls-1" d="M68.41,219.7a4.67,4.67,0,0,0,4.6,3.63,4.26,4.26,0,0,0,3.88-2.14h5c-1.07,3.74-4.31,6.27-8.87,6.27a9.62,9.62,0,0,1,0-19.24c5.42,0,9.9,4.21,9.23,11.48H68.41Zm9.19-3.85a4.6,4.6,0,0,0-4.6-3.49,4.69,4.69,0,0,0-4.53,3.49h9.12Z" transform="translate(-30.1 -53.12)"/><path class="cls-1" d="M97.59,225.33A7.42,7.42,0,0,1,92,227.4c-3.88,0-7.45-2-7.44-6s3.46-5.2,7.52-5.56c3.06-.28,5.24-0.64,5.24-2.14,0-1-1.25-1.75-3.35-1.75-1.67,0-3.6.75-4,2.31h-4.7c0.46-3.49,3.81-6.09,8.62-6.09,7.45,0,8,4.81,8,6.27v9.55a11.18,11.18,0,0,0,.53,3H98.05A6.57,6.57,0,0,1,97.59,225.33Zm-0.14-7.13A10.84,10.84,0,0,1,93,219.38c-2.32.25-3.74,0.75-3.74,2.1,0,1,1.21,1.75,3.1,1.75,2.81,0,5.1-1,5.1-3.31v-1.71Z" transform="translate(-30.1 -53.12)"/><path class="cls-1" d="M123.89,227H119.4v-2a7.68,7.68,0,0,1-5.63,2.35c-4.77,0-8.73-4.13-8.73-9.55s4-9.58,8.73-9.58a7.71,7.71,0,0,1,5.42,2.14v-9.91h4.7V227Zm-9.4-14.4c-2.6,0-4.7,2.28-4.7,5.27a4.72,4.72,0,1,0,9.41,0A5,5,0,0,0,114.49,212.65Z" transform="translate(-30.1 -53.12)"/><path class="cls-1" d="M131.41,210v17h-1.35V210h-2.49V208.7h2.49v-1.28c0-4.06,2.32-6.66,6.27-6.3v1.21c-3.46-.21-4.92,1.92-4.92,5.2v1.18h4.92V210h-4.92Z" transform="translate(-30.1 -53.12)"/><path class="cls-1" d="M155.25,217.93a9.19,9.19,0,1,1-9.19-9.69A9.39,9.39,0,0,1,155.25,217.93Zm-1.35,0c0-4.67-3.49-8.45-7.84-8.45s-7.84,3.78-7.84,8.44A7.85,7.85,0,1,0,153.89,217.93Z" transform="translate(-30.1 -53.12)"/><path class="cls-1" d="M167.58,209.53a6.75,6.75,0,0,0-5.42,1.57,6.47,6.47,0,0,0-2,4.88v11.08h-1.35V208.71h1.35v3.06a6.09,6.09,0,0,1,1.21-1.64,7.77,7.77,0,0,1,6.24-1.82v1.21Z" transform="translate(-30.1 -53.12)"/><path class="cls-2" d="M173.81,220.72c0,3.13,1.46,5.27,5,5.13v1.21c-4,.36-6.27-2.25-6.27-6.34V210H170v-1.32h2.49v-3.92h1.32v3.92h5V210h-5v10.69Z" transform="translate(-30.1 -53.12)"/><path class="cls-2" d="M197.61,227.07h-1.32V216c0-4-2.17-6.45-6.2-6.45A6.39,6.39,0,0,0,183.5,216v11.08h-1.32V200.55h1.32v11.26a7.55,7.55,0,0,1,6.63-3.56c4.7,0,7.48,3,7.48,7.73v11.08Z" transform="translate(-30.1 -53.12)"/><path class="cls-2" d="M202.31,217.88a8.08,8.08,0,0,0,8,8.3c4.31,0,6.27-2.39,7.16-4.81h1.39a8.34,8.34,0,0,1-8.55,6.12,9.63,9.63,0,0,1-.21-19.24c5.49,0,9.23,5,9.15,9.62h-17Zm15.57-1.31a8,8,0,0,0-7.73-6.95,7.94,7.94,0,0,0-7.7,6.95h15.43Z" transform="translate(-30.1 -53.12)"/><path class="cls-2" d="M242.71,227.08h-4.85l-3.31-12.15-3.32,12.15h-4.88l-5.7-18.35h5l3.2,12.83,3.35-12.83h4.7l3.35,12.83,3.21-12.83h5Z" transform="translate(-30.1 -53.12)"/><path class="cls-2" d="M267.73,217.93a9.25,9.25,0,1,1-9.26-9.66A9.32,9.32,0,0,1,267.73,217.93ZM263,218c0-3.17-2-5.38-4.52-5.38s-4.53,2.21-4.53,5.38,2,5.24,4.52,5.24S263,221.06,263,218Z" transform="translate(-30.1 -53.12)"/><path class="cls-2" d="M287,217.29h-4.7v-0.93c0-1.07-.32-3.63-3.42-3.64a3.48,3.48,0,0,0-3.56,3.63v10.72h-4.7V208.73h4.49v1.78a6.06,6.06,0,0,1,4.74-2.24c4.31,0,7.16,3.24,7.16,8.09v0.93Z" transform="translate(-30.1 -53.12)"/><path class="cls-2" d="M293.88,227.09h-4.7V200.58h4.7v26.51Z" transform="translate(-30.1 -53.12)"/><path class="cls-2" d="M316,227.09h-4.49v-2a7.68,7.68,0,0,1-5.63,2.35c-4.77,0-8.73-4.13-8.73-9.55s4-9.58,8.73-9.58a7.71,7.71,0,0,1,5.42,2.14v-9.91H316v26.51Zm-9.4-14.4c-2.6,0-4.7,2.28-4.7,5.27a4.72,4.72,0,1,0,9.41,0A5,5,0,0,0,306.6,212.7Z" transform="translate(-30.1 -53.12)"/><path class="cls-2" d="M115.46,252h-2l0-10.69h2Z" transform="translate(-30.1 -53.12)"/><path class="cls-2" d="M132.46,251.92H130l-4.38-7.59,0,7.61h-2l0-10.69H126l4.37,7.59,0-7.61h2Z" transform="translate(-30.1 -53.12)"/><path class="cls-2" d="M148.62,244.42h-2c0-.93-0.78-1.62-2.07-1.61-1.08,0-2.08.42-2.08,1.24s0.73,1,2.36,1.33c2.54,0.5,4.15,1.13,4.15,3.31s-1.71,3.36-4.41,3.37c-2.09,0-4.38-1.14-4.38-3.71h2a2.11,2.11,0,0,0,2.35,1.86c1.17,0,2.39-.42,2.38-1.44,0-.68-0.56-1.09-2.53-1.47s-4-1-4-3.25c0-1.83,1.61-3.12,4.1-3.12C147.33,240.91,148.62,242.72,148.62,244.42Z" transform="translate(-30.1 -53.12)"/><path class="cls-2" d="M160.38,243l0,8.79h-2l0-8.79h-2.86v-1.89l7.76,0V243h-2.87Z" transform="translate(-30.1 -53.12)"/><path class="cls-2" d="M172.75,251.79h-2l0-10.69h2Z" transform="translate(-30.1 -53.12)"/><path class="cls-2" d="M185,243l0,8.79h-2l0-8.79h-2.86v-1.89l7.76,0V243H185Z" transform="translate(-30.1 -53.12)"/><path class="cls-2" d="M203.46,247.47c0,2.73-1.42,4.42-4.11,4.43s-4.12-1.68-4.12-4.41l0-6.45h2l0,6.51c0,1.59.7,2.38,2.09,2.38s2.08-.81,2.07-2.39l0-6.51h2Z" transform="translate(-30.1 -53.12)"/><path class="cls-2" d="M215.62,242.87l0,8.79h-2l0-8.79h-2.87V241l7.76,0v1.89h-2.87Z" transform="translate(-30.1 -53.12)"/><path class="cls-2" d="M233.82,251.61l-7.91,0,0-10.69,7.81,0v1.89l-5.78,0v2.28l4.93,0V247h-4.93v2.73l5.88,0v1.89Z" transform="translate(-30.1 -53.12)"/></svg>